<svg width="90" height="80" viewBox="0 0 90 80" fill="none" xmlns="http://www.w3.org/2000/svg">
<g clip-path="url(#clip0_40_13)">
<path d="M80.58 80.0002H8.89007C7.34097 79.986 5.82389 79.5575 4.49627 78.7592C3.16865 77.9609 2.07884 76.8218 1.34002 75.4602C0.452798 73.9065 -0.00889345 72.1462 0.00164117 70.3571C0.0121758 68.568 0.494622 66.8133 1.40008 65.2702L37.24 4.43018C37.9765 3.08466 39.0614 1.96208 40.3809 1.18005C41.7005 0.398027 43.2062 -0.0146484 44.74 -0.0146484C46.2739 -0.0146484 47.7795 0.398027 49.0991 1.18005C50.4186 1.96208 51.5036 3.08466 52.24 4.43018L88.08 65.2702C88.987 66.8124 89.471 68.5666 89.4833 70.3558C89.4956 72.1449 89.0358 73.9056 88.1501 75.4602C87.4096 76.8248 86.3166 77.9658 84.9852 78.7643C83.6537 79.5628 82.1325 79.9896 80.58 80.0002ZM41.86 7.15021L6.01006 67.9902C5.58985 68.722 5.36871 69.5513 5.36871 70.3952C5.36871 71.2391 5.58985 72.0683 6.01006 72.8002C6.28826 73.3354 6.70303 73.7875 7.21233 74.1106C7.72164 74.4337 8.30726 74.6165 8.90997 74.6402H80.6C81.2015 74.6164 81.7861 74.4348 82.2951 74.1136C82.8041 73.7924 83.2197 73.3428 83.5001 72.8102C83.9221 72.0771 84.1442 71.2461 84.1442 70.4002C84.1442 69.5543 83.9221 68.7232 83.5001 67.9902L47.6501 7.15021C47.3709 6.63208 46.9566 6.1992 46.4513 5.89746C45.9461 5.59573 45.3686 5.4364 44.7801 5.4364C44.1916 5.4364 43.614 5.59573 43.1087 5.89746C42.6034 6.1992 42.1891 6.63208 41.91 7.15021H41.86Z" fill="#00FFFF"/>
<path d="M41.67 21.3496L42.49 52.3696H46.97L47.79 21.3496H41.67Z" fill="#00FFFF"/>
<path d="M47.38 61.2695H42.08V67.9395H47.38V61.2695Z" fill="#00FFFF"/>
<path opacity="0.2" d="M80.58 80.0002H8.88006C7.33267 79.9843 5.81758 79.5549 4.49188 78.7567C3.16617 77.9585 2.07802 76.8204 1.34002 75.4602C0.452798 73.9065 -0.00889345 72.1462 0.00164117 70.3571C0.0121758 68.568 0.494622 66.8133 1.40008 65.2702L37.24 4.43018C37.9765 3.08466 39.0614 1.96208 40.3809 1.18005C41.7005 0.398027 43.2062 -0.0146484 44.74 -0.0146484C46.2739 -0.0146484 47.7795 0.398027 49.0991 1.18005C50.4186 1.96208 51.5036 3.08466 52.24 4.43018L88.08 65.2702C88.987 66.8124 89.471 68.5666 89.4833 70.3558C89.4956 72.1449 89.0358 73.9056 88.1501 75.4602C87.408 76.8234 86.3147 77.9632 84.9836 78.7615C83.6525 79.5598 82.1321 79.9875 80.58 80.0002Z" fill="#00FFFF"/>
</g>
<defs>
<clipPath id="clip0_40_13">
<rect width="89.47" height="80" fill="white"/>
</clipPath>
</defs>
</svg>
